<svg width="670" height="685" viewBox="0 0 670 685" fill="none" xmlns="http://www.w3.org/2000/svg">
<g clip-path="url(#clip0_219_7)">
<path fill-rule="evenodd" clip-rule="evenodd" d="M71.6143 438.292L71.6153 438.289C73.1718 434.936 75.8168 432.089 79.5759 429.763C88.5484 424.243 95.452 415.897 99.2117 406.023C101.618 398.941 108.273 394.208 115.719 394.286C126.799 393.928 137.468 389.988 146.143 383.051C152.186 378.329 158.838 377.627 165.605 381.326C175.045 386.678 185.997 388.7 196.715 387.07C201.019 386.44 204.833 386.883 208.134 388.43C208.252 388.485 208.368 388.541 208.484 388.599C208.602 388.651 208.719 388.704 208.836 388.759C212.138 390.306 214.928 392.957 217.213 396.675C222.86 405.973 231.442 413.102 241.59 416.928C248.759 419.76 252.501 425.331 252.785 433.018C253.072 444.154 256.927 454.899 263.776 463.657C268.621 469.339 269.291 477.504 265.439 483.908C260.328 493.149 258.402 503.828 259.961 514.282C260.605 518.671 260.134 522.538 258.577 525.891L258.577 525.892C256.99 529.31 254.278 532.195 250.467 534.557C241.604 539.94 234.8 548.163 231.151 557.902C228.006 565.959 222.053 570.195 213.474 570.403C203.149 570.516 193.163 574.128 185.136 580.655C178.424 586.052 171.131 586.779 163.595 582.838C154.044 577.715 143.108 575.806 132.396 577.393C128.449 577.972 124.953 577.523 121.914 576.101L121.905 576.097C121.785 576.041 121.668 575.983 121.55 575.925C121.43 575.872 121.311 575.818 121.192 575.763L121.182 575.758C118.144 574.333 115.556 571.931 113.459 568.52C107.784 559.254 99.2993 552.064 89.2534 548.005C81.4055 544.738 77.2715 538.658 77.0721 530.022C76.8877 519.647 73.2232 509.639 66.6719 501.619C61.3162 494.882 60.7195 487.577 64.8402 479.977C69.9196 470.908 71.8153 460.385 70.2217 450.103C69.5734 445.651 70.0283 441.71 71.6143 438.292Z" fill="#D17F7D"/>
<path fill-rule="evenodd" clip-rule="evenodd" d="M161.45 511.435C157.532 511.435 153.935 510.51 150.662 508.661C147.391 506.812 144.794 504.255 142.873 500.99C140.953 497.724 139.993 494.045 139.993 489.954C139.993 485.862 140.953 482.183 142.873 478.918C144.794 475.652 147.391 473.105 150.662 471.275C153.935 469.445 157.532 468.531 161.45 468.531C165.37 468.531 168.956 469.445 172.209 471.275C175.462 473.105 178.038 475.652 179.94 478.918C181.84 482.183 182.791 485.862 182.791 489.954C182.791 494.045 181.84 497.724 179.94 500.99C178.038 504.255 175.452 506.812 172.18 508.661C168.907 510.51 165.33 511.435 161.45 511.435ZM161.47 498.504C164.416 498.504 166.692 497.741 168.299 496.213C169.906 494.685 170.709 492.627 170.709 490.039C170.709 487.414 169.906 485.338 168.299 483.81C166.692 482.282 164.416 481.518 161.47 481.518C158.48 481.518 156.181 482.282 154.574 483.81C152.967 485.338 152.164 487.414 152.164 490.039C152.164 492.627 152.967 494.685 154.574 496.213C156.181 497.741 158.48 498.504 161.47 498.504ZM162.209 462.7C160.176 462.7 158.546 462.003 157.32 460.612C156.092 459.22 155.479 457.469 155.479 455.358C155.479 453.203 156.092 451.418 157.32 450.005C158.546 448.59 160.176 447.883 162.209 447.883C164.206 447.883 165.819 448.59 167.045 450.005C168.272 451.418 168.886 453.203 168.886 455.358C168.886 457.469 168.272 459.22 167.045 460.612C165.819 462.003 164.206 462.7 162.209 462.7ZM183.723 471.392C181.691 471.392 180.061 470.697 178.834 469.305C177.607 467.912 176.994 466.161 176.994 464.051C176.994 461.896 177.607 460.111 178.834 458.697C180.061 457.283 181.691 456.575 183.723 456.575C185.721 456.575 187.333 457.283 188.56 458.697C189.786 460.111 190.4 461.896 190.4 464.051C190.4 466.161 189.786 467.912 188.56 469.305C187.333 470.697 185.721 471.392 183.723 471.392Z" fill="#FEEBD9"/>
<path fill-rule="evenodd" clip-rule="evenodd" d="M335.108 135.247L335.109 135.243C337.371 130.393 341.216 126.274 346.68 122.91C359.721 114.926 369.756 102.851 375.22 88.5682C378.718 78.3242 388.392 71.479 399.214 71.591C415.317 71.0734 430.825 65.3737 443.434 55.3391C452.216 48.5084 461.887 47.4933 471.721 52.8436C485.443 60.5859 501.362 63.5113 516.94 61.1537C523.195 60.2417 528.738 60.8831 533.537 63.1207C533.708 63.2002 533.876 63.2813 534.045 63.3647C534.217 63.4398 534.387 63.5172 534.557 63.5963C539.357 65.8344 543.411 69.6685 546.733 75.0464C554.941 88.4961 567.415 98.8099 582.165 104.345C592.585 108.438 598.024 116.5 598.437 127.618C598.854 143.727 604.456 159.27 614.411 171.939C621.454 180.158 622.427 191.968 616.828 201.232C609.4 214.599 606.6 230.047 608.866 245.17C609.802 251.518 609.117 257.111 606.855 261.961L606.855 261.964C604.55 266.907 600.606 271.081 595.067 274.497C582.185 282.283 572.296 294.178 566.991 308.266C562.42 319.921 553.768 326.049 541.298 326.35C526.291 326.511 511.778 331.738 500.11 341.179C490.353 348.986 479.753 350.037 468.801 344.337C454.917 336.926 439.023 334.165 423.453 336.46C417.716 337.298 412.635 336.649 408.217 334.592L408.203 334.585C408.031 334.504 407.859 334.422 407.689 334.337C407.514 334.26 407.34 334.183 407.168 334.102L407.154 334.095C402.737 332.034 398.975 328.559 395.928 323.625C387.679 310.223 375.347 299.822 360.746 293.95C349.339 289.224 343.33 280.429 343.04 267.937C342.772 252.93 337.446 238.452 327.924 226.851C320.14 217.106 319.272 206.54 325.262 195.546C332.644 182.427 335.4 167.206 333.084 152.332C332.141 145.894 332.802 140.19 335.108 135.247Z" fill="#EA7C73"/>
<path fill-rule="evenodd" clip-rule="evenodd" d="M421.33 219.627L422.977 218.676C431.649 220.769 440.812 221.077 450.464 219.603C460.117 218.13 469.142 214.969 477.54 210.119C485.884 205.302 493.107 199.082 499.21 191.461C505.312 183.838 509.626 175.749 512.15 167.192L513.88 166.193L524.053 183.814C522.1 191.968 517.914 199.929 511.493 207.697C505.073 215.467 497.115 222.092 487.619 227.575C478.122 233.058 468.405 236.637 458.467 238.312C448.528 239.989 439.541 239.633 431.503 237.248L421.33 219.627ZM435.29 195.432C433.451 192.247 432.828 189.204 433.421 186.3C434.014 183.397 435.6 181.2 438.179 179.71C440.814 178.189 443.551 177.89 446.389 178.813C449.228 179.736 451.566 181.789 453.404 184.973C455.211 188.102 455.804 191.126 455.184 194.046C454.564 196.965 452.937 199.185 450.302 200.707C447.722 202.196 445.026 202.472 442.216 201.533C439.405 200.594 437.096 198.56 435.29 195.432ZM467.894 176.607C466.056 173.424 465.433 170.38 466.025 167.476C466.618 164.573 468.204 162.376 470.784 160.887C473.419 159.365 476.156 159.066 478.994 159.989C481.832 160.912 484.171 162.966 486.009 166.149C487.815 169.278 488.409 172.302 487.789 175.222C487.169 178.141 485.541 180.362 482.907 181.883C480.326 183.373 477.631 183.648 474.821 182.709C472.009 181.77 469.701 179.737 467.894 176.607Z" fill="#FEEBD9"/>
<path fill-rule="evenodd" clip-rule="evenodd" d="M553.5 522.999C608.452 522.999 653 478.452 653 423.5C653 368.548 608.452 324 553.5 324C498.548 324 454 368.548 454 423.5C454 478.452 498.548 522.999 553.5 522.999Z" fill="#FFDB9E"/>
<path d="M457.056 490.735C450.846 441.641 388.182 424.85 358.256 464.261L355.432 467.981C346.454 479.804 333.096 487.517 318.368 489.38L313.735 489.966C264.641 496.176 247.85 558.84 287.262 588.766L290.981 591.59C302.805 600.567 310.517 613.925 312.38 628.654L312.966 633.287C319.176 682.381 381.84 699.172 411.766 659.76L414.59 656.041C423.567 644.217 436.926 636.505 451.654 634.641L456.287 634.056C505.381 627.846 522.172 565.182 482.76 535.256L479.04 532.431C467.217 523.454 459.504 510.096 457.641 495.368L457.056 490.735Z" fill="#F5E6CE"/>
<path fill-rule="evenodd" clip-rule="evenodd" d="M178.491 163.857C160.538 161.106 147.316 144.094 123.724 140.778C109.502 138.78 95.8171 142.735 85.1873 150.747C74.6404 158.695 67.1017 170.637 65.0323 184.716L64.9388 185.381C63.549 195.745 65.3161 205.813 69.5045 214.61L112.412 320.584C119.47 336.098 133.998 347.818 152.065 350.523L152.064 350.524C152.104 350.529 152.144 350.535 152.184 350.539C152.301 350.557 152.418 350.575 152.536 350.591L152.537 350.591L152.538 350.588C170.649 352.967 187.844 345.706 198.905 332.739L269.361 242.697C275.88 235.317 280.381 226.007 281.854 215.526C283.853 201.303 279.898 187.615 271.888 176.985C263.879 166.354 251.814 158.779 237.593 156.78C213.959 153.459 196.54 166.218 178.491 163.857Z" fill="#FFADAB"/>
<path fill-rule="evenodd" clip-rule="evenodd" d="M335 223C343.986 223.022 352.974 223.003 361.961 223.066C365.568 223.091 369.174 223.163 372.78 223.263C375.52 223.339 378.258 223.449 380.995 223.592C383.284 223.712 385.57 223.866 387.853 224.053C389.848 224.217 391.841 224.415 393.83 224.647C395.613 224.856 397.393 225.098 399.168 225.375C409.69 227.018 420.287 230.036 429.124 236.178C430.041 236.816 430.938 237.486 431.807 238.187C433.527 239.571 435.142 241.072 436.645 242.687C438.936 245.15 440.951 247.864 442.676 250.75C445.241 255.039 447.172 259.684 448.63 264.457C449.964 268.831 450.92 273.316 451.625 277.831C452.564 283.847 453.089 289.925 453.408 296.003C453.725 302.051 453.893 309.073 453.935 315.037C453.997 324.025 453.979 333.012 454 342C453.979 350.986 453.997 359.974 453.935 368.961C453.909 372.567 453.836 376.174 453.737 379.78C453.662 382.52 453.551 385.258 453.408 387.995C453.288 390.284 453.135 392.57 452.946 394.853C452.783 396.848 452.584 398.841 452.353 400.829C452.145 402.613 451.902 404.393 451.626 406.168C449.982 416.69 446.964 427.288 440.822 436.124C440.185 437.041 439.514 437.938 438.813 438.807C437.429 440.526 435.928 442.142 434.313 443.645C431.85 445.936 429.135 447.951 426.25 449.676C421.961 452.241 417.316 454.172 412.543 455.63C408.17 456.964 403.684 457.92 399.169 458.625C393.153 459.564 387.075 460.089 380.997 460.408C374.948 460.725 367.929 460.893 361.963 460.935C352.975 460.997 343.988 460.979 335 461C326.013 460.979 317.026 460.997 308.04 460.935C304.433 460.909 300.826 460.836 297.22 460.737C294.481 460.662 291.742 460.551 289.005 460.408C286.717 460.288 284.43 460.135 282.147 459.947C280.152 459.783 278.159 459.584 276.171 459.353C274.387 459.145 272.607 458.902 270.832 458.625C260.31 456.982 249.712 453.964 240.876 447.822C239.959 447.185 239.063 446.514 238.192 445.813C236.473 444.429 234.859 442.928 233.355 441.313C231.064 438.85 229.05 436.135 227.323 433.25C224.758 428.961 222.827 424.316 221.37 419.543C220.035 415.17 219.08 410.684 218.375 406.169C217.436 400.153 216.911 394.075 216.592 387.997C216.275 381.949 216.107 374.926 216.066 368.963C216.003 359.975 216.022 350.988 216 342C216.022 333.013 216.003 324.026 216.066 315.04C216.091 311.433 216.163 307.826 216.263 304.22C216.339 301.481 216.449 298.742 216.592 296.005C216.712 293.717 216.866 291.431 217.053 289.147C217.217 287.152 217.415 285.159 217.647 283.171C217.856 281.387 218.098 279.607 218.375 277.832C220.018 267.31 223.036 256.712 229.178 247.876C229.816 246.959 230.486 246.063 231.187 245.192C232.571 243.473 234.072 241.859 235.687 240.355C238.15 238.064 240.864 236.05 243.75 234.323C248.039 231.758 252.684 229.827 257.457 228.37C261.831 227.035 266.316 226.08 270.831 225.375C276.847 224.436 282.925 223.911 289.003 223.592C295.051 223.275 302.074 223.107 308.037 223.066C317.025 223.003 326.012 223.022 335 223Z" fill="#FFF2EE"/>
<path fill-rule="evenodd" clip-rule="evenodd" d="M333.372 351.207C334.534 344.745 336.638 339.137 339.687 334.382C342.737 329.627 346.403 325.997 350.686 323.492C354.97 320.987 359.507 319.735 364.298 319.735C368.291 319.735 371.577 320.552 374.154 322.185C376.732 323.819 378.529 326.051 379.545 328.883L384.445 301.331H408.62L394.355 381.916H370.179L371.704 373.531C369.671 376.363 367.075 378.595 363.918 380.229C360.76 381.862 357.184 382.679 353.191 382.679C347.02 382.679 342.047 380.61 338.272 376.471C334.496 372.333 332.609 366.598 332.609 359.265C332.609 356.506 332.863 353.821 333.372 351.207ZM375.732 351.206C375.878 350.553 375.951 349.682 375.951 348.593C375.951 346.125 375.297 344.22 373.991 342.876C372.683 341.533 370.905 340.862 368.654 340.862C366.041 340.862 363.735 341.769 361.739 343.583C359.742 345.398 358.454 347.94 357.873 351.206C357.728 351.86 357.656 352.731 357.656 353.821C357.656 356.289 358.309 358.194 359.616 359.537C360.922 360.881 362.701 361.552 364.951 361.552C367.566 361.552 369.87 360.645 371.867 358.83C373.863 357.015 375.153 354.474 375.732 351.206ZM316.02 352.075L333.009 381.913H306.001L298.16 368.083L287.924 381.913H261.353L287.706 349.57L271.154 320.494H298.16L306.001 334.433L316.347 320.494H342.918L316.02 352.075Z" fill="#D17F7D"/>
</g>
<defs>
<clipPath id="clip0_219_7">
<rect width="670" height="684.438" fill="white"/>
</clipPath>
</defs>
</svg>
