<svg width="50" height="50" viewBox="0 0 50 50" fill="none" xmlns="http://www.w3.org/2000/svg">
<path fill-rule="evenodd" clip-rule="evenodd" d="M25 2.18557e-06C26.8879 0.00460525 28.7761 0.000666156 30.664 0.0138092C31.4218 0.0190846 32.1794 0.0343086 32.937 0.0552539C33.5126 0.0711686 34.0879 0.0942347 34.6628 0.124383C35.1436 0.149584 35.6239 0.181844 36.1036 0.221286C36.5227 0.255754 36.9415 0.297289 37.3592 0.346083C37.7339 0.389856 38.1078 0.44073 38.4806 0.498939C40.6912 0.84414 42.9175 1.47819 44.7739 2.76849C44.9666 2.90249 45.155 3.0433 45.3377 3.19055C45.6991 3.48131 46.0382 3.79655 46.354 4.136C46.8353 4.65342 47.2585 5.22361 47.6211 5.82994C48.16 6.73089 48.5656 7.70667 48.8718 8.70944C49.1521 9.62828 49.3528 10.5705 49.5009 11.5192C49.6983 12.7831 49.8085 14.0599 49.8756 15.3368C49.9422 16.6074 49.9775 18.0827 49.9863 19.3355C49.9993 21.2237 49.9955 23.1119 50 25C49.9955 26.8879 49.9993 28.7761 49.9863 30.664C49.9808 31.4216 49.9656 32.1794 49.9448 32.937C49.9289 33.5126 49.9057 34.0879 49.8756 34.6628C49.8505 35.1436 49.8182 35.624 49.7787 36.1036C49.7443 36.5228 49.7026 36.9415 49.654 37.359C49.6102 37.7339 49.5592 38.1079 49.5012 38.4806C49.1559 40.6913 48.5218 42.9176 47.2315 44.774C47.0976 44.9666 46.9566 45.155 46.8095 45.3377C46.5187 45.6989 46.2033 46.0382 45.864 46.3541C45.3467 46.8354 44.7763 47.2586 44.1701 47.6211C43.2692 48.16 42.2934 48.5657 41.2905 48.8718C40.3718 49.1522 39.4294 49.3529 38.4808 49.501C37.2171 49.6984 35.94 49.8086 34.6633 49.8756C33.3924 49.9422 31.9178 49.9775 30.6645 49.9863C28.7763 49.9993 26.8882 49.9955 25 50C23.112 49.9955 21.224 49.9993 19.3361 49.9863C18.5783 49.9809 17.8206 49.9657 17.0631 49.9448C16.4875 49.929 15.9121 49.9057 15.3371 49.8756C14.8565 49.8505 14.3761 49.8183 13.8965 49.7787C13.4773 49.7444 13.0586 49.7027 12.6409 49.6541C12.2661 49.6102 11.8922 49.5593 11.5194 49.501C9.30884 49.156 7.08244 48.5218 5.22614 47.2316C5.03334 47.0977 4.84512 46.9567 4.6622 46.8095C4.30107 46.5188 3.9619 46.2034 3.64607 45.864C3.16462 45.3467 2.74152 44.7763 2.37884 44.1702C1.83997 43.2692 1.43428 42.2934 1.12822 41.2906C0.847774 40.3718 0.647129 39.4294 0.498975 38.4808C0.301596 37.2171 0.191356 35.9401 0.1244 34.6633C0.0577753 33.3927 0.022538 31.9173 0.0138154 30.6645C0.000669335 28.7763 0.00460512 26.8882 0 25C0.0046027 23.1121 0.000665351 21.224 0.0138081 19.3361C0.0190834 18.5783 0.0343073 17.8206 0.0552527 17.0631C0.0711674 16.4875 0.0942338 15.9121 0.124382 15.3371C0.149583 14.8565 0.181842 14.3762 0.221284 13.8965C0.255752 13.4773 0.297288 13.0586 0.346082 12.6409C0.389854 12.2662 0.440729 11.8922 0.498937 11.5194C0.844139 9.30885 1.47819 7.08245 2.76848 5.22614C2.90249 5.03335 3.04329 4.84512 3.19055 4.66221C3.4813 4.30102 3.79654 3.96193 4.136 3.64607C4.65341 3.16465 5.22358 2.74152 5.82993 2.37884C6.73088 1.83998 7.70666 1.43428 8.70943 1.12822C9.62827 0.847775 10.5705 0.647131 11.5192 0.498977C12.783 0.3016 14.0599 0.191357 15.3368 0.124401C16.6073 0.0577793 18.0828 0.0225386 19.3355 0.0138165C21.2236 0.000670724 23.1118 0.00460695 25 2.18557e-06Z" fill="#FFF2EE"/>
<path fill-rule="evenodd" clip-rule="evenodd" d="M24.6574 26.9362C24.9015 25.5786 25.3437 24.4004 25.9842 23.4015C26.625 22.4025 27.3951 21.6398 28.2949 21.1137C29.1949 20.5875 30.148 20.3244 31.1546 20.3244C31.9935 20.3244 32.6837 20.4959 33.2252 20.8391C33.7667 21.1823 34.1442 21.6513 34.3577 22.2461L35.3871 16.458H40.466L37.469 33.3876H32.3901L32.7105 31.626C32.2833 32.221 31.738 32.6899 31.0747 33.0331C30.4112 33.3762 29.66 33.5478 28.8212 33.5478C27.5247 33.5478 26.4799 33.1132 25.6868 32.2437C24.8937 31.3743 24.4972 30.1696 24.4972 28.6291C24.4972 28.0494 24.5506 27.4852 24.6574 26.9362ZM33.5567 26.9359C33.5873 26.7987 33.6027 26.6158 33.6027 26.3869C33.6027 25.8684 33.4653 25.4682 33.1908 25.1859C32.9162 24.9037 32.5425 24.7627 32.0698 24.7627C31.5207 24.7627 31.0363 24.9532 30.6169 25.3345C30.1975 25.7158 29.9269 26.2497 29.8048 26.9359C29.7743 27.0734 29.7591 27.2563 29.7591 27.4852C29.7591 28.0037 29.8963 28.4039 30.1709 28.6862C30.4453 28.9684 30.819 29.1094 31.2918 29.1094C31.8411 29.1094 32.3252 28.9189 32.7446 28.5376C33.1641 28.1563 33.4349 27.6224 33.5567 26.9359ZM21.0121 27.1184L24.5811 33.3869H18.9073L17.2601 30.4814L15.1096 33.3869H9.52734L15.0638 26.5921L11.5864 20.4838H17.2601L18.9073 23.4121L21.0807 20.4838H26.6629L21.0121 27.1184Z" fill="#D17F7D"/>
</svg>
